<?xml version="1.0" encoding="utf-8"?>
<!-- Generator: Adobe Illustrator 25.4.1, SVG Export Plug-In . SVG Version: 6.00 Build 0)  -->
<svg version="1.1" id="Calque_1" xmlns="http://www.w3.org/2000/svg" xmlns:xlink="http://www.w3.org/1999/xlink" x="0px" y="0px"
	 width="320px" height="320px" viewBox="0 0 320 320" style="enable-background:new 0 0 320 320;" xml:space="preserve">
<path d="M310.5,54.6c12.5-12.5,12.5-32.8,0-45.3c-12.5-12.5-32.8-12.5-45.3,0L160,114.7L54.6,9.5C42.2-3,21.9-3,9.4,9.5
	s-12.5,32.8,0,45.3L114.7,160L9.5,265.4C-3,277.8-3,298.1,9.5,310.6s32.8,12.5,45.3,0L160,205.3l105.4,105.3
	c12.5,12.5,32.8,12.5,45.3,0s12.5-32.8,0-45.3L205.3,160L310.5,54.6z"/>
</svg>
